<svg xmlns="http://www.w3.org/2000/svg" width="500" height="500" viewBox="0 0 500 500"><g transform="translate(64,327)translate(186,33.5)rotate(0)translate(-186,-33.5)" opacity="1"><path transform="translate(6,0)rotate(0)" d="M1.15 19.46L1.15 11.57L20.40 11.57L20.40 19.46L17.51 19.46L17.51 41.11L20.40 41.11L20.40 49L1.15 49L1.15 41.11L4.04 41.11L4.04 19.46L1.15 19.46ZM38.68 33.22L38.68 41.11L41.86 41.11L41.86 49L22.32 49L22.32 41.11L25.21 41.11L25.21 19.46L22.32 19.46L22.32 11.57L44.89 11.57L44.89 11.57Q47.82 11.57 50.20 12.15L50.20 12.15L50.20 12.15Q52.58 12.73 54.22 14.00L54.22 14.00L54.22 14.00Q55.86 15.27 56.75 17.34L56.75 17.34L56.75 17.34Q57.64 19.41 57.64 22.40L57.64 22.40L57.64 22.40Q57.64 25.57 56.36 27.93L56.36 27.93L56.36 27.93Q55.09 30.29 52.63 31.25L52.63 31.25L52.68 31.73L52.68 31.73Q57.30 32.45 57.30 37.41L57.30 37.41L57.30 41.11L59.56 41.11L59.56 49L44.31 49L44.31 37.69L44.31 37.69Q44.31 36.25 44.00 35.36L44.00 35.36L44.00 35.36Q43.68 34.47 42.99 34.01L42.99 34.01L42.99 34.01Q42.29 33.56 41.23 33.39L41.23 33.39L41.23 33.39Q40.17 33.22 38.68 33.22L38.68 33.22ZM38.68 27.35L41.28 27.35L41.28 27.35Q42.67 27.35 43.37 26.63L43.37 26.63L43.37 26.63Q44.07 25.91 44.07 24.27L44.07 24.27L44.07 22.54L44.07 22.54Q44.07 20.90 43.37 20.18L43.37 20.18L43.37 20.18Q42.67 19.46 41.28 19.46L41.28 19.46L38.68 19.46L38.68 27.35ZM79.57 41.11L79.57 41.11L79.57 41.11Q81.21 41.11 82.03 40.27L82.03 40.27L82.03 40.27Q82.85 39.43 82.85 37.55L82.85 37.55L82.85 23.02L82.85 23.02Q82.85 21.14 82.03 20.30L82.03 20.30L82.03 20.30Q81.21 19.46 79.57 19.46L79.57 19.46L79.57 19.46Q77.94 19.46 77.12 20.30L77.12 20.30L77.12 20.30Q76.30 21.14 76.30 23.02L76.30 23.02L76.30 37.55L76.30 37.55Q76.30 39.43 77.12 40.27L77.12 40.27L77.12 40.27Q77.94 41.11 79.57 41.11ZM97.95 30.29L97.95 30.29L97.95 30.29Q97.95 35.58 96.65 39.26L96.65 39.26L96.65 39.26Q95.35 42.94 92.97 45.25L92.97 45.25L92.97 45.25Q90.59 47.56 87.18 48.62L87.18 48.62L87.18 48.62Q83.76 49.67 79.57 49.67L79.57 49.67L79.57 49.67Q75.39 49.67 71.97 48.62L71.97 48.62L71.97 48.62Q68.56 47.56 66.18 45.25L66.18 45.25L66.18 45.25Q63.79 42.94 62.49 39.26L62.49 39.26L62.49 39.26Q61.20 35.58 61.20 30.29L61.20 30.29L61.20 30.29Q61.20 25.04 62.49 21.34L62.49 21.34L62.49 21.34Q63.79 17.63 66.18 15.32L66.18 15.32L66.18 15.32Q68.56 13.01 71.97 11.96L71.97 11.96L71.97 11.96Q75.39 10.90 79.57 10.90L79.57 10.90L79.57 10.90Q83.76 10.90 87.18 11.96L87.18 11.96L87.18 11.96Q90.59 13.01 92.97 15.32L92.97 15.32L92.97 15.32Q95.35 17.63 96.65 21.34L96.65 21.34L96.65 21.34Q97.95 25.04 97.95 30.29ZM127.30 19.46L127.30 11.57L144.14 11.57L144.14 19.46L141.25 19.46L141.25 49L127.73 49L113.64 27.30L113.64 41.11L116.52 41.11L116.52 49L99.68 49L99.68 41.11L102.57 41.11L102.57 19.46L99.68 19.46L99.68 11.57L117.53 11.57L130.19 30.91L130.19 19.46L127.30 19.46ZM177.91 11.57L177.91 19.46L175.50 19.46L178.82 38.46L179.31 38.46L182.63 19.46L180.22 19.46L180.22 11.57L196.19 11.57L196.19 19.46L194.27 19.46L186.62 49L169.11 49L161.46 19.46L159.53 19.46L159.53 11.57L177.91 11.57ZM197.35 19.46L197.35 11.57L216.59 11.57L216.59 19.46L213.70 19.46L213.70 41.11L216.59 41.11L216.59 49L197.35 49L197.35 41.11L200.23 41.11L200.23 19.46L197.35 19.46ZM256.09 19.46L254.16 19.46L246.61 29.18L254.89 41.11L256.81 41.11L256.81 49L242.47 49L234.87 35.82L234.87 49L218.52 49L218.52 41.11L221.40 41.11L221.40 19.46L218.52 19.46L218.52 11.57L234.87 11.57L234.87 24.51L243.68 11.57L256.09 11.57L256.09 19.46ZM258.54 19.46L258.54 11.57L277.79 11.57L277.79 19.46L274.90 19.46L274.90 41.11L277.79 41.11L277.79 49L258.54 49L258.54 41.11L261.43 41.11L261.43 19.46L258.54 19.46ZM307.13 19.46L307.13 11.57L323.97 11.57L323.97 19.46L321.09 19.46L321.09 49L307.57 49L293.47 27.30L293.47 41.11L296.36 41.11L296.36 49L279.52 49L279.52 41.11L282.41 41.11L282.41 19.46L279.52 19.46L279.52 11.57L297.37 11.57L310.02 30.91L310.02 19.46L307.13 19.46ZM344.76 36.97L344.76 29.80L361.79 29.80L361.79 36.97L359.38 36.97L359.38 46.59L359.38 46.59Q358.27 47.12 356.81 47.68L356.81 47.68L356.81 47.68Q355.34 48.23 353.44 48.66L353.44 48.66L353.44 48.66Q351.54 49.10 349.18 49.38L349.18 49.38L349.18 49.38Q346.82 49.67 343.94 49.67L343.94 49.67L343.94 49.67Q339.61 49.67 336.14 48.62L336.14 48.62L336.14 48.62Q332.68 47.56 330.25 45.25L330.25 45.25L330.25 45.25Q327.82 42.94 326.52 39.26L326.52 39.26L326.52 39.26Q325.22 35.58 325.22 30.29L325.22 30.29L325.22 30.29Q325.22 25.04 326.52 21.34L326.52 21.34L326.52 21.34Q327.82 17.63 330.23 15.32L330.23 15.32L330.23 15.32Q332.63 13.01 336.10 11.96L336.10 11.96L336.10 11.96Q339.56 10.90 343.84 10.90L343.84 10.90L343.84 10.90Q346.78 10.90 349.16 11.19L349.16 11.19L349.16 11.19Q351.54 11.47 353.44 11.93L353.44 11.93L353.44 11.93Q355.34 12.39 356.81 12.94L356.81 12.94L356.81 12.94Q358.27 13.49 359.38 14.02L359.38 14.02L359.38 25.52L347.35 25.52L347.35 23.26L347.35 23.26Q347.35 21.19 346.51 20.33L346.51 20.33L346.51 20.33Q345.67 19.46 343.84 19.46L343.84 19.46L343.84 19.46Q342.01 19.46 341.17 20.33L341.17 20.33L341.17 20.33Q340.33 21.19 340.33 23.26L340.33 23.26L340.33 37.31L340.33 37.31Q340.33 39.38 341.17 40.24L341.17 40.24L341.17 40.24Q342.01 41.11 343.84 41.11L343.84 41.11L343.84 41.11Q345.67 41.11 346.51 40.24L346.51 40.24L346.51 40.24Q347.35 39.38 347.35 37.31L347.35 37.31L347.35 36.97L344.76 36.97Z" fill="#000000"/></g><g transform="translate(169,107)translate(80.5,99)rotate(0)translate(-80.5,-99) scale(1.7139693827581068,1.7139693827581068)" opacity="1"><defs class="defs"/><path class="color c1" d="M78.155,38.973l1.765-15.854c0.94-9.563-4.756-19.14-14.989-22.272C62.907,0.228,60.774,0,58.659,0h-23.08
	c-3.151,0-6.322,0.51-9.193,1.811c-8.568,3.892-13.236,12.55-12.36,21.401l1.753,15.762C6.119,47.573,0,60.068,0,74.023
	c0,14.295,6.398,27.071,16.479,35.68c4.7,4.01,10.697,6.191,16.878,6.191h27.301c5.579,0,11.122-1.654,15.491-5.121
	c10.832-8.599,17.783-21.851,17.783-36.75C93.934,60.068,87.815,47.577,78.155,38.973z M29.496,21.587
	c-0.209-2.106,0.784-3.556,1.396-4.228c0.609-0.672,1.95-1.801,4.069-1.801h24.01c2.119,0,3.461,1.129,4.072,1.801
	c0.608,0.677,1.604,2.123,1.406,4.135l-0.959,8.608c-5.146-1.938-10.697-3.047-16.523-3.047c-5.825,0-11.376,1.109-16.524,3.047
	L29.496,21.587z" fill="#141414"/></g><g transform="translate(79,177)translate(40,56)rotate(0)translate(-40,-56) scale(1.7251417850904622,1.7251417850904622)" opacity="1"><defs class="defs"/><path class="color c1" d="M18.665,58.457c-3.979,0-7.204-0.229-7.204-4.199V10.106c0-3.977,3.227-4.2,7.204-4.2
	c3.976,0,7.202,0.225,7.202,4.2v44.15C25.867,58.232,22.641,58.457,18.665,58.457z M39.169,64.56c-3.979,0-7.201-0.229-7.201-4.205
	V4.202C31.968,0.226,35.192,0,39.169,0c3.98,0,7.203,0.229,7.203,4.202v56.149C46.375,64.332,43.149,64.56,39.169,64.56z
	 M5.359,25.344C2.283,26.161,0,28.941,0,32.279c0,3.339,2.283,6.119,5.359,6.935V25.344z" fill="#141414"/></g><g transform="translate(420,177)translate(-39.5,56)rotate(0)translate(39.5,-56) scale(-1.7035775127768313,1.7035775127768313)" opacity="1"><defs class="defs"/><path class="color c1" d="M18.665,58.457c-3.979,0-7.204-0.229-7.204-4.199V10.106c0-3.977,3.227-4.2,7.204-4.2
	c3.976,0,7.202,0.225,7.202,4.2v44.15C25.867,58.232,22.641,58.457,18.665,58.457z M39.169,64.56c-3.979,0-7.201-0.229-7.201-4.205
	V4.202C31.968,0.226,35.192,0,39.169,0c3.98,0,7.203,0.229,7.203,4.202v56.149C46.375,64.332,43.149,64.56,39.169,64.56z
	 M5.359,25.344C2.283,26.161,0,28.941,0,32.279c0,3.339,2.283,6.119,5.359,6.935V25.344z" fill="#141414"/></g><g transform="translate(172,186)translate(77.5,52)rotate(0)translate(-77.5,-52) scale(0.2711212174217247,0.2711212174217247)" opacity="1"><defs class="defs"/><path transform="translate(-34.099999999999994,-16.8)" d="M226.5,396.7M291.2,67.3l29.2,-50.5l29.3,50.5zM335.5,77.5h-0.5h-14.7h-14.7h-0.5h-14.5v135.1h14.7h0.5h14.7h14.7h0.5h14.7v-135.1h-14.9zM320.4,181.1c-4.6,0 -8.3,-3.6 -8.3,-7.9c0,-4.3 3.7,-7.9 8.3,-7.9c4.6,0 8.3,3.6 8.3,7.9c0,4.3 -3.7,7.9 -8.3,7.9zM320.4,118.2c-4.6,0 -8.3,-3.6 -8.3,-7.9c0,-4.3 3.7,-7.9 8.3,-7.9c4.6,0 8.3,3.6 8.3,7.9c0,4.3 -3.7,7.9 -8.3,7.9zM464.7,230v-7.1h-80.1c-20.5,0.9 -53.1,6 -64.5,26.9v0.3v-0.2v0v-0.2c-11.7,-21.3 -45.5,-26.1 -66.1,-26.9h-78.7v7.1c0,0 -0.2,19.1 0,25.5c1.7,60.4 63.1,65.3 94.9,65.3c13.7,0 18.5,0 18.5,0l0.5,20.2l30.4,13.9l0.5,-0.3l0.5,0.3l30.6,-13.9l0.3,-20.2c0,0 4.8,0 18.5,0c31.8,0 93.1,-4.9 94.9,-65.3c0,-6.3 -0.2,-25.4 -0.2,-25.4zM204.6,255.5c0,0 84.1,-4.9 84.1,32.6c0,0.1 -82.6,5.3 -84.1,-32.6zM351.3,288.2c0,-37.7 84.1,-32.6 84.1,-32.6c-1.7,37.8 -84.1,32.6 -84.1,32.6zM136.4,260.7v-77.2h30.9v77.2zM126.8,184.6c-34.4,-0.6 -62.1,-30.1 -62.1,-66.5c0,-28.7 17.4,-49.9 41.7,-59.1c-41.7,12.5 -72.3,49.4 -72.3,97.3c0,55.4 40.9,100.8 92.6,104.4v-38v-38.1zM474.5,260.7v-77.2h29.3v77.2zM512.6,184c34.6,-0.6 62.5,-30.6 62.5,-67.6c0,-29.2 -17.6,-50.6 -42,-60.2c41.8,12.7 72.7,50.2 72.7,98.8c0,56.3 -41.2,102.5 -93.2,106.1v-38.6zM175.4,212.9h8.3h8.6h89.1v-29.3h-86.8h-19.3c-0.2,9.6 0.1,19.2 0.1,29.3zM228.2,189.2c4.6,0 8.3,3.7 8.3,8.2c0,4.5 -3.7,8.2 -8.3,8.2c-4.6,0 -8.3,-3.7 -8.3,-8.2c0,-4.6 3.7,-8.2 8.3,-8.2zM281.5,101.2v-22.4c-52,13.6 -92.8,53.7 -106.1,104.7h19.3h3.6c13.7,-38 44.4,-68.2 83.2,-82.3zM465,183.5h-19.5h-86.9v29.3h89.5h8.6h8.3c0,-10 0.4,-19.6 0,-29.3zM420.6,197.3c0,4.5 -3.7,8.2 -8.3,8.2c-4.6,0 -8.3,-3.7 -8.3,-8.2c0,-4.5 3.7,-8.2 8.3,-8.2c4.6,0.1 8.3,3.7 8.3,8.2zM358.7,101.2v-22.4c52.5,13.6 93.1,53.7 106.4,104.7h-19.3h-3.6c-13.7,-38 -44.9,-68.2 -83.5,-82.3z" fill="#374FCE" class="fill c1"/></g></svg>